<svg xmlns="http://www.w3.org/2000/svg" width="24" height="24" viewBox="0 0 24 24" fill="none" stroke="currentColor" stroke-width="1.6" stroke-linecap="round" stroke-linejoin="round">
  <path d="M12 4.5a2.5 2.5 0 0 0-4.96-.46 2.5 2.5 0 0 0-1.98 3 2.5 2.5 0 0 0-1.32 4.24 3 3 0 0 0 .34 5.58 2.5 2.5 0 0 0 2.96 3.08A2.5 2.5 0 0 0 12 19.5Z"/>
  <path d="M12 4.5a2.5 2.5 0 0 1 4.96-.46 2.5 2.5 0 0 1 1.98 3 2.5 2.5 0 0 1 1.32 4.24 3 3 0 0 1-.34 5.58 2.5 2.5 0 0 1-2.96 3.08A2.5 2.5 0 0 1 12 19.5Z"/>
  <path d="M12 4.5v15"/>
  <path d="M8.5 9.5a2 2 0 0 0 2 2"/>
  <path d="M15.5 9.5a2 2 0 0 1-2 2"/>
  <path d="M8 15.5a2 2 0 0 0 2-2"/>
  <path d="M16 15.5a2 2 0 0 1-2-2"/>
</svg>
